<?xml version="1.0" standalone="no"?>
<!DOCTYPE svg PUBLIC "-//W3C//DTD SVG 20010904//EN"
 "http://www.w3.org/TR/2001/REC-SVG-20010904/DTD/svg10.dtd">
<svg version="1.0" xmlns="http://www.w3.org/2000/svg"
 width="1024.000000pt" height="1024.000000pt" viewBox="0 0 1024.000000 1024.000000"
 preserveAspectRatio="xMidYMid meet">

<g transform="translate(0.000000,1024.000000) scale(0.100000,-0.100000)"
fill="#000000" stroke="none">
<path d="M4937 8385 c-528 -64 -1057 -280 -1452 -594 -184 -146 -418 -400
-547 -592 -46 -70 -79 -109 -110 -128 -76 -48 -137 -132 -180 -247 -22 -57
-22 -73 -26 -511 l-3 -453 -315 0 -315 0 -24 -25 c-35 -34 -35 -106 0 -140
l24 -25 316 0 315 0 0 -849 c0 -532 4 -868 10 -902 40 -213 225 -384 441 -409
46 -5 336 -10 644 -10 l560 0 80 -26 c98 -31 305 -77 445 -99 142 -23 548 -31
722 -15 177 16 365 51 518 97 l125 38 630 5 c616 6 631 6 688 28 169 63 275
169 339 338 l23 59 3 873 3 872 280 0 280 0 24 25 c19 18 25 35 25 70 0 35 -6
52 -25 70 l-24 25 -281 0 -280 0 0 438 c0 488 -4 525 -64 647 -34 68 -109 151
-204 225 -35 27 -32 16 -175 527 -58 204 -84 259 -165 344 -116 124 -274 180
-441 158 -34 -5 -109 -23 -166 -40 l-103 -32 -119 48 c-384 154 -760 226
-1178 224 -104 -1 -238 -7 -298 -14z m468 -185 c83 -5 200 -17 260 -25 196
-28 479 -104 484 -130 2 -5 -73 -31 -166 -56 -92 -26 -260 -72 -373 -103 -113
-32 -268 -75 -345 -96 -77 -21 -201 -55 -275 -75 -234 -64 -555 -153 -875
-245 -448 -127 -656 -185 -770 -214 -55 -14 -111 -29 -125 -33 -22 -6 -20 -1
20 47 25 30 90 100 145 156 448 457 1052 729 1725 777 93 7 149 6 295 -3z
m1587 -218 c52 -23 128 -88 157 -136 16 -26 171 -558 171 -587 0 -5 -45 -9
-100 -9 -97 0 -100 1 -100 23 0 12 -4 27 -8 33 -14 20 -57 44 -78 44 -12 0
-96 -22 -188 -50 l-167 -50 -554 0 -555 0 0 34 c0 43 -39 92 -80 101 -19 4
-76 -7 -172 -34 -79 -22 -198 -53 -265 -70 l-122 -31 -408 0 c-453 1 -452 1
-253 58 121 36 628 176 1035 287 154 42 424 116 600 165 176 48 415 114 530
145 116 32 248 68 295 82 102 28 192 27 262 -5z m-3532 -918 c0 -3 -13 -22
-30 -42 -16 -20 -42 -64 -57 -97 l-28 -60 -5 -355 c-6 -392 -4 -386 -60 -215
-12 39 -25 73 -29 77 -6 6 -175 -33 -185 -43 -6 -6 48 -202 70 -255 8 -19 20
-34 27 -34 7 0 46 9 86 20 44 13 78 17 83 12 5 -5 8 -33 6 -62 l-3 -53 -65
-22 c-36 -13 -65 -26 -64 -31 0 -5 11 -44 24 -86 l23 -78 39 6 38 7 -1 -329
c0 -181 -3 -322 -6 -314 -29 74 -367 1088 -419 1257 -61 192 -69 227 -69 298
0 68 4 89 29 138 53 109 123 147 409 222 169 45 187 49 187 39z m3986 -46 c63
-33 136 -103 162 -155 40 -78 42 -123 42 -1100 l0 -943 -22 0 c-13 0 -89 -2
-170 -5 -131 -4 -153 -2 -192 16 -72 31 -152 35 -232 10 -85 -26 -136 -61
-189 -128 -22 -28 -42 -52 -45 -52 -3 0 -19 21 -37 48 -39 60 -106 108 -185
133 -148 45 -308 -6 -407 -132 l-39 -49 -31 44 c-38 53 -94 98 -158 127 -65
30 -195 31 -269 4 -71 -26 -137 -77 -181 -137 l-36 -51 -28 45 c-102 164 -329
214 -506 110 -43 -25 -143 -128 -143 -147 0 -5 -17 15 -38 45 -151 217 -473
207 -635 -21 l-18 -25 -21 30 c-43 61 -120 124 -176 147 -77 30 -193 30 -277
0 -32 -12 -63 -22 -67 -22 -4 0 -8 433 -8 963 0 1056 0 1044 60 1132 39 57
101 105 164 127 48 16 152 17 1841 15 l1790 -2 51 -27z m-4436 -1644 c0 -7
-12 -14 -27 -16 -37 -4 -40 -31 -13 -119 l21 -70 45 3 46 3 53 -153 c75 -212
71 -196 49 -188 -65 25 -113 25 -183 1 -74 -26 -98 -29 -151 -18 l-33 6 6 546
c3 300 6 548 7 551 1 9 180 -533 180 -546z m778 -724 c84 -20 142 -87 156
-181 l7 -47 47 -4 c26 -2 88 -3 138 0 l92 4 6 44 c15 114 94 187 201 187 108
0 183 -70 200 -186 l7 -47 139 0 c139 0 139 0 139 23 0 13 7 46 15 73 24 82
96 134 185 134 114 0 200 -87 200 -202 l0 -28 139 0 138 0 7 48 c10 72 36 113
91 150 46 31 55 34 111 30 102 -6 177 -77 190 -180 l7 -48 46 -1 c85 -2 136
-2 177 -1 l40 2 12 60 c13 73 39 112 96 145 48 28 134 34 172 12 75 -43 114
-102 114 -172 l0 -45 140 0 c116 0 140 3 140 15 0 42 25 119 47 146 32 37 92
69 133 69 17 0 47 -7 68 -16 31 -14 73 -16 249 -14 l211 1 -5 -248 c-2 -136
-6 -249 -7 -250 -1 -2 -862 -4 -1912 -5 -1831 -3 -1911 -2 -1962 15 -71 25
-141 83 -174 143 -31 58 -54 175 -44 228 14 73 98 140 196 155 3 0 24 -4 48
-9z m-672 -25 c48 -14 50 -16 78 -86 36 -87 69 -129 102 -129 14 0 26 -6 28
-12 2 -7 11 -43 19 -80 25 -105 60 -169 135 -243 81 -80 193 -139 292 -155 42
-6 735 -10 1958 -10 1040 0 1892 -4 1892 -8 0 -4 -13 -29 -29 -54 -33 -52 -77
-88 -147 -120 l-49 -23 -2170 0 -2170 0 -57 28 c-68 33 -121 91 -147 161 -17
45 -19 87 -22 383 l-4 332 70 0 c38 0 90 7 115 15 57 19 48 18 106 1z"/>
<path d="M6790 7751 c-36 -10 -162 -44 -280 -75 -118 -31 -225 -61 -237 -66
-51 -21 -63 -104 -22 -149 31 -33 64 -35 142 -12 40 11 175 48 301 81 126 33
243 68 260 78 59 34 60 107 3 142 -39 24 -82 24 -167 1z"/>
<path d="M6017 7522 c-32 -8 -61 -21 -64 -28 -7 -19 36 -134 51 -134 16 0 117
28 123 34 7 7 -24 108 -39 127 -12 15 -19 15 -71 1z"/>
<path d="M3120 6680 c-14 -5 -51 -16 -82 -24 l-56 -16 9 -38 c29 -108 40 -132
63 -132 13 0 36 4 52 9 16 5 54 17 86 25 l56 16 -12 48 c-27 102 -38 122 -66
121 -14 0 -36 -4 -50 -9z"/>
<path d="M4643 6800 c-153 -40 -278 -133 -370 -277 -68 -107 -94 -201 -94
-341 0 -137 36 -244 122 -358 l38 -52 3 -267 3 -267 33 -29 c29 -26 40 -29 97
-29 l65 0 0 -60 c0 -101 -3 -100 269 -100 l228 0 27 25 c22 20 26 32 26 80 l0
55 49 0 c64 0 106 16 128 48 16 24 18 54 20 284 l1 257 45 63 c100 142 132
260 116 425 -26 257 -222 484 -474 548 -83 21 -242 19 -332 -5z m308 -200
c127 -39 249 -163 285 -288 11 -38 15 -81 12 -141 -5 -107 -35 -178 -107 -254
l-51 -54 0 -76 0 -77 -80 0 -80 0 0 233 c0 168 -3 236 -12 245 -8 8 -46 12
-103 12 -57 0 -95 -4 -103 -12 -9 -9 -12 -77 -12 -245 l0 -233 -80 0 -80 0 0
73 0 73 -55 64 c-79 91 -99 149 -100 280 0 99 2 109 34 175 95 195 322 291
532 225z m137 -1152 l3 -68 -276 0 -275 0 0 70 0 70 273 -2 272 -3 3 -67z"/>
<path d="M6622 6784 c-32 -22 -43 -55 -31 -98 18 -67 12 -66 424 -66 406 0
400 -1 425 60 10 24 10 36 0 60 -25 61 -19 60 -425 60 -324 0 -373 -2 -393
-16z"/>
<path d="M3697 6774 c-4 -4 -7 -47 -7 -96 l0 -88 115 0 116 0 -3 93 -3 92
-106 3 c-58 1 -108 -1 -112 -4z"/>
<path d="M5702 6708 c-21 -21 -14 -47 14 -54 31 -8 47 6 42 37 -3 27 -36 37
-56 17z"/>
<path d="M5875 6700 c-8 -27 12 -52 39 -48 16 2 21 10 21 33 0 25 -4 31 -27
33 -19 2 -28 -2 -33 -18z"/>
<path d="M6056 6705 c-9 -26 12 -57 37 -53 17 2 22 10 22 33 0 25 -4 31 -26
33 -17 2 -29 -3 -33 -13z"/>
<path d="M6242 6708 c-21 -21 -14 -47 14 -54 31 -8 47 6 42 37 -3 27 -36 37
-56 17z"/>
<path d="M6420 6705 c-18 -22 -1 -50 31 -50 20 0 24 5 24 30 0 23 -5 31 -21
33 -11 2 -27 -4 -34 -13z"/>
<path d="M3697 6443 c-4 -3 -7 -69 -7 -145 l0 -138 100 0 100 0 0 145 0 145
-93 0 c-52 0 -97 -3 -100 -7z"/>
<path d="M5780 6351 c-81 -20 -108 -105 -51 -162 l30 -29 815 2 814 3 26 24
c52 49 41 121 -24 153 -32 17 -91 18 -810 17 -426 -1 -786 -4 -800 -8z"/>
<path d="M3702 6022 c-9 -7 -12 -48 -10 -173 l3 -164 98 -3 c53 -1 97 1 98 5
6 59 3 321 -4 331 -11 14 -164 17 -185 4z"/>
<path d="M5748 5844 c-57 -30 -65 -98 -19 -145 l29 -29 807 0 c574 0 813 3
828 11 31 16 57 50 57 77 0 35 -25 77 -55 90 -19 9 -226 12 -823 12 -684 -1
-801 -3 -824 -16z"/>
<path d="M3692 5348 c-15 -15 -16 -112 -2 -139 10 -17 22 -19 108 -19 63 0
102 4 110 12 7 7 12 39 12 73 0 34 -5 66 -12 73 -8 8 -47 12 -108 12 -61 0
-100 -4 -108 -12z"/>
<path d="M5726 5335 c-37 -35 -36 -92 3 -134 l29 -31 812 0 812 0 34 34 c47
47 43 96 -10 138 -19 16 -79 18 -837 18 l-816 0 -27 -25z"/>
<path d="M2980 4020 c-23 -23 -24 -33 -10 -60 18 -34 46 -42 80 -25 16 9 30
20 30 24 0 5 3 16 6 24 8 21 -31 57 -61 57 -14 0 -34 -9 -45 -20z"/>
<path d="M3196 4018 c-22 -32 -20 -64 6 -82 31 -22 45 -20 73 9 30 29 31 49 5
75 -27 27 -65 26 -84 -2z"/>
<path d="M3404 4014 c-23 -34 -9 -75 28 -88 52 -18 90 50 54 97 -20 26 -62 22
-82 -9z"/>
<path d="M2069 5171 c-19 -19 -29 -40 -29 -59 0 -35 33 -80 68 -93 55 -21 122
31 122 96 0 40 -50 85 -95 85 -27 0 -44 -8 -66 -29z m89 -58 c-2 -20 -9 -29
-25 -31 -20 -3 -23 1 -23 27 0 27 4 31 26 31 22 0 25 -4 22 -27z"/>
<path d="M8266 5175 c-36 -33 -37 -95 -1 -130 57 -58 155 -15 155 67 0 80 -93
119 -154 63z m92 -62 c2 -14 -4 -26 -18 -33 -29 -15 -45 0 -36 35 8 33 49 32
54 -2z"/>
<path d="M1950 2990 c-14 -25 -7 -897 7 -911 5 -5 148 -8 349 -7 l339 3 0 95
0 95 -238 3 -238 2 3 78 3 77 165 2 c91 1 171 2 178 2 10 1 12 24 10 99 l-3
97 -175 5 -175 5 -3 83 -3 82 225 0 c204 0 226 2 235 17 8 15 15 6 41 -52 38
-84 175 -401 219 -505 18 -41 44 -100 59 -130 l27 -55 120 0 120 0 27 55 c32
64 188 425 188 434 0 4 29 68 66 142 36 75 63 139 60 142 -3 3 -54 4 -113 3
-90 -2 -109 -5 -118 -19 -14 -25 -89 -199 -146 -341 -62 -153 -78 -186 -89
-175 -4 5 -54 119 -110 254 -55 135 -108 256 -116 269 -15 22 -20 23 -117 19
l-102 -3 0 75 0 75 -342 3 c-334 2 -342 2 -353 -18z"/>
<path d="M5653 2998 c-11 -20 -14 -887 -2 -909 8 -16 22 -19 102 -19 59 0 97
4 105 12 8 8 12 54 12 140 l0 128 135 0 c180 0 245 20 326 100 69 67 99 139
99 235 0 154 -90 272 -237 310 -76 20 -528 22 -540 3z m487 -213 c42 -22 60
-53 60 -107 0 -39 -6 -54 -29 -80 l-29 -33 -136 -3 -136 -4 0 121 0 121 120 0
c88 0 129 -4 150 -15z"/>
<path d="M7377 2879 c-110 -16 -199 -84 -232 -179 -28 -78 -13 -150 42 -211
49 -54 92 -75 220 -105 118 -28 143 -43 143 -85 0 -33 -30 -57 -83 -66 -61 -9
-104 5 -158 53 l-50 44 -30 -17 c-36 -21 -129 -102 -129 -111 0 -16 117 -97
171 -119 165 -67 369 -24 451 94 62 91 48 226 -30 294 -48 42 -97 62 -214 89
-78 17 -102 27 -118 47 -25 32 -25 55 -1 77 45 41 142 28 206 -27 l39 -34 45
29 c26 15 60 39 76 53 l30 25 -59 55 c-89 82 -189 112 -319 94z"/>
<path d="M8080 2880 c-141 -24 -240 -128 -240 -253 0 -126 75 -196 258 -237
107 -25 151 -46 159 -78 9 -36 -33 -73 -90 -79 -60 -7 -112 12 -164 60 l-43
39 -53 -40 c-29 -23 -64 -53 -77 -68 l-25 -26 43 -38 c130 -116 333 -142 487
-62 95 48 149 162 125 264 -26 107 -97 160 -270 199 -101 23 -140 46 -140 84
0 39 36 60 99 60 50 -1 64 -5 109 -38 29 -20 54 -37 57 -37 14 0 135 86 135
96 0 7 -26 36 -59 66 -42 39 -73 59 -112 70 -70 21 -143 28 -199 18z"/>
<path d="M8529 2841 c-16 -16 -29 -39 -29 -51 0 -31 44 -70 80 -70 66 0 99 89
48 133 -30 25 -65 21 -99 -12z m89 -3 c18 -18 15 -63 -6 -88 -35 -43 -100 -2
-86 54 9 37 67 59 92 34z"/>
<path d="M8560 2820 c0 -6 -4 -8 -10 -5 -12 8 -13 -25 -1 -43 5 -8 17 -12 27
-10 26 5 27 61 2 66 -10 2 -18 -2 -18 -8z"/>
<path d="M3612 2852 c-49 -7 -51 -21 -53 -400 -1 -264 2 -356 11 -367 18 -21
496 -22 525 -1 16 11 19 26 19 86 -1 50 -5 75 -15 81 -8 5 -89 9 -181 9 l-168
0 0 65 0 65 129 0 c145 0 141 -3 141 87 0 73 0 73 -119 73 -152 0 -151 0 -151
71 l0 59 178 2 177 3 3 83 c2 61 0 82 -10 84 -24 3 -463 3 -486 0z"/>
<path d="M4210 2853 c-8 -3 -18 -11 -22 -17 -4 -6 -8 -174 -8 -373 0 -419 -6
-393 96 -393 108 0 104 -8 104 201 0 99 4 179 8 177 5 -1 75 -77 156 -168 195
-218 186 -210 251 -210 90 0 85 -22 85 401 l0 369 -26 10 c-46 18 -132 12
-154 -10 -19 -19 -20 -34 -20 -212 l-1 -193 -52 55 c-29 31 -114 126 -190 213
-133 151 -140 157 -175 156 -20 0 -44 -3 -52 -6z"/>
<path d="M4948 2849 c-25 -14 -27 -164 -2 -173 9 -3 63 -6 120 -6 l104 0 0
-290 c0 -332 -7 -310 99 -310 95 0 91 -14 91 316 l0 284 109 0 c81 0 112 4
120 14 7 9 11 42 9 87 l-3 74 -40 6 c-67 12 -588 10 -607 -2z"/>
<path d="M6624 2846 c-11 -8 -33 -45 -49 -83 -16 -37 -93 -200 -172 -362 -78
-161 -144 -301 -145 -310 -3 -13 9 -16 77 -19 104 -4 116 0 143 48 l23 40 184
0 184 0 16 -29 c28 -56 40 -61 130 -61 46 0 86 4 89 8 6 9 -36 101 -290 630
l-73 152 -48 0 c-27 0 -58 -6 -69 -14z m105 -412 c23 -48 40 -88 38 -91 -3 -2
-43 -3 -90 -1 l-86 3 41 88 c23 48 44 87 48 87 4 0 26 -39 49 -86z"/>
</g>
</svg>
